<?xml version="1.0" encoding="UTF-8"?>
<svg id="Layer_5" data-name="Layer 5" xmlns="http://www.w3.org/2000/svg" version="1.1" viewBox="0 0 512 512">
  <defs>
    <style>
      .cls-1 {
        fill: #000;
      }

      .cls-1, .cls-2 {
        stroke-width: 0px;
      }

      .cls-2 {
        fill: #00a0e2;
      }
    </style>
  </defs>
  <path class="cls-1" d="M408,136c0-17.9-9.9-33.5-24.4-41.8.3-2.1.4-4.1.4-6.2,0-24.7-18.7-45-42.6-47.7-6.6-19-24.8-32.3-45.4-32.3s-31.4,8.5-40,21.5c-8.6-13-23.3-21.5-40-21.5s-38.6,13.1-45.2,32.1c-27.7-1.8-50.8,20.5-50.8,47.9s.5,7.5,1.3,11.1c-11,9.1-17.3,22.5-17.3,36.9s9.9,33.5,24.4,41.8c-.3,2.1-.4,4.1-.4,6.2,0,24.7,18.7,45,42.6,47.7,6.6,19,24.8,32.3,45.4,32.3s24-4.6,33.1-12.8l-10.7-11.9c-6.2,5.6-14.1,8.7-22.4,8.7-15.2,0-28.4-10.8-31.4-25.7l-1.3-6.6-6.7.2c-.4,0-.9,0-.6,0-17.6,0-32-14.4-32-32s0-.5,0-.7c2.6.4,5.2.7,8,.7,14.8,0,28.6-6.7,37.8-18.4l-12.6-9.9c-6.1,7.8-15.3,12.3-25.2,12.3-17.6,0-32-14.4-32-32s3-15.5,8.1-21.3c8.6,12.8,23.3,21.3,39.9,21.3s42.4-16.2,46.9-38.4l-15.7-3.2c-3,14.8-16.2,25.6-31.3,25.6s-32-14.4-32-32,14.4-32,32-32,4.5.3,7,.8l8.2,1.8,1.5-8.2c2.7-15.3,15.9-26.4,31.4-26.4s32,14.4,32,32h16c0-17.6,14.4-32,32-32s28.4,10.8,31.4,25.7l1.3,6.6,6.7-.2c.4,0,.9,0,.6,0,17.6,0,32,14.4,32,32s0,.5,0,.7c-2.6-.4-5.2-.7-8-.7-14.8,0-28.6,6.7-37.8,18.4l12.6,9.9c6.1-7.8,15.3-12.3,25.2-12.3,17.6,0,32,14.4,32,32s-3,15.5-8.1,21.3c-8.6-12.8-23.3-21.3-39.9-21.3s-36.3,11.3-43.9,28.8l14.7,6.4c5.1-11.7,16.6-19.2,29.2-19.2s32,14.4,32,32-14.4,32-32,32-4.5-.3-7-.8l-8.2-1.8-1.5,8.2c-2.7,15.3-15.9,26.4-31.4,26.4s-13.6-2.2-19.2-6.4l-9.6,12.8c8.4,6.3,18.3,9.6,28.8,9.6,20.6,0,38.6-13.1,45.2-32.1,27.6,1.7,50.8-20.5,50.8-47.9s-.5-7.5-1.3-11.1c11-9.1,17.3-22.5,17.3-36.9Z"/>
  <path class="cls-1" d="M248,120h16c0-13.2-10.8-24-24-24v16c4.4,0,8,3.6,8,8Z"/>
  <path class="cls-1" d="M312,72c0-13.2-10.8-24-24-24v16c4.4,0,8,3.6,8,8h16Z"/>
  <path class="cls-1" d="M216,56v16c4.4,0,8,3.6,8,8h16c0-13.2-10.8-24-24-24Z"/>
  <path class="cls-1" d="M446,413.4c10.9-8.8,18-22.3,18-37.4,0-26.5-21.5-48-48-48s-48,21.5-48,48,7,28.6,18,37.4c-22.2,8.1-40.2,24.8-50,46.2-9.8-21.3-27.8-38.1-50-46.2,10.9-8.8,18-22.3,18-37.4,0-26.5-21.5-48-48-48s-48,21.5-48,48,7,28.6,18,37.4c-22.2,8.1-40.2,24.8-50,46.2-9.8-21.3-27.8-38.1-50-46.2,10.9-8.8,18-22.3,18-37.4,0-26.5-21.5-48-48-48s-48,21.5-48,48,7,28.6,18,37.4c-33.8,12.3-58,44.6-58,82.6v8h496v-8c0-38-24.2-70.3-58-82.6ZM64,376c0-17.6,14.4-32,32-32s32,14.4,32,32-14.4,32-32,32-32-14.4-32-32ZM24.4,488c4-36,34.6-64,71.6-64s67.6,28,71.6,64H24.4ZM224,376c0-17.6,14.4-32,32-32s32,14.4,32,32-14.4,32-32,32-32-14.4-32-32ZM184.4,488c4-36,34.6-64,71.6-64s67.6,28,71.6,64h-143.1ZM384,376c0-17.6,14.4-32,32-32s32,14.4,32,32-14.4,32-32,32-32-14.4-32-32ZM344.4,488c4-36,34.6-64,71.6-64s67.6,28,71.6,64h-143.1Z"/>
  <g>
    <path class="cls-2" d="M242.4,312c-5,0-9.6-2.2-12.8-6-3.2-3.8-4.4-8.8-3.4-13.7l12-60.2h-33.3l29.3-88h57.6l-16,40h32.3l-50.6,118c-2.6,6.1-8.6,10-15.2,10h0Z"/>
    <path class="cls-2" d="M64,200c-30.9,0-56,25.1-56,56s25.1,56,56,56,56-25.1,56-56-25.1-56-56-56Z"/>
    <path class="cls-2" d="M448,200c-30.9,0-56,25.1-56,56s25.1,56,56,56,56-25.1,56-56-25.1-56-56-56Z"/>
  </g>
  <path class="cls-1" d="M85.7,245.7l-11.3-11.3-10.3,10.3-10.3-10.3-11.3,11.3,10.3,10.3-10.3,10.3,11.3,11.3,10.3-10.3,10.3,10.3,11.3-11.3-10.3-10.3,10.3-10.3Z"/>
  <path class="cls-1" d="M440,283.3l-21.7-21.7,11.3-11.3,10.3,10.3,26.3-26.3,11.3,11.3-37.7,37.7Z"/>
</svg>