<?xml version="1.0" encoding="UTF-8"?>
<svg id="Layer_5" data-name="Layer 5" xmlns="http://www.w3.org/2000/svg" version="1.1" viewBox="0 0 512 512">
  <defs>
    <style>
      .cls-1 {
        fill: #000;
      }

      .cls-1, .cls-2 {
        stroke-width: 0px;
      }

      .cls-2 {
        fill: #00a0e2;
      }
    </style>
  </defs>
  <path class="cls-1" d="M479.9,203.3l-6.4,14.7c8.8,3.8,14.5,12.5,14.5,22v224c0,13.2-10.8,24-24,24h-144c-13.2,0-24-10.8-24-24v-224c0-9.6,5.7-18.2,14.5-22l-6.4-14.7c-14.7,6.4-24.1,20.8-24.1,36.7v224c0,9,3.1,17.3,8.2,24h-24.2v-80h-16v80h-16v-64h-16v64h-16v-128h-16v128h-16v-160h-16v160h-16v-96h-16v96h-16v-80h-16v80h-32V232h84.7l42.3,42.4c3.6,3.6,8.6,5.6,13.7,5.6,10.6,0,19.3-8.7,19.3-19.3v-28.7h24c13.2,0,24-10.8,24-24v-40h32v-16h-32v-40c0-13.2-10.8-24-24-24h-24v16h24c4.4,0,8,3.6,8,8v96c0,4.4-3.6,8-8,8h-40v44.7c0,2.7-3.7,4.2-5.7,2.3l-47-47H32c-4.4,0-8-3.6-8-8v-96c0-4.4,3.6-8,8-8h24v-16h-24c-13.2,0-24,10.8-24,24v96c0,13.2,10.8,24,24,24h8v272h424c22.1,0,40-17.9,40-40v-224c0-15.9-9.5-30.3-24.1-36.7Z"/>
  <path class="cls-1" d="M328,472h128c8.8,0,16-7.2,16-16v-128c0-8.8-7.2-16-16-16h-128c-8.8,0-16,7.2-16,16v128c0,8.8,7.2,16,16,16ZM328,424h32v32h-32v-32ZM408,376v32h-32v-32h32ZM376,360v-32h32v32h-32ZM408,456h-32v-32h32v32ZM360,408h-32v-32h32v32ZM424,456v-80h32v80s-32,0-32,0ZM456,360h-32v-32h32v32ZM360,328v32h-32v-32h32Z"/>
  <path class="cls-1" d="M472,224h-16v56h-128v-56h-16v72h160v-72Z"/>
  <path class="cls-1" d="M72,296h16v16h-16v-16Z"/>
  <path class="cls-1" d="M104,296h96v16h-96v-16Z"/>
  <path class="cls-2" d="M496,129.8l-19.3-4.8,10.2-17.1-42.8-42.8-17.1,10.2-4.8-19.3h-60.5l-4.8,19.3-17.1-10.2-42.8,42.8,10.2,17.1-19.3,4.8v60.5l19.3,4.8-10.2,17.1,42.8,42.8,17.1-10.2,4.8,19.3h60.5l4.8-19.3,17.1,10.2,42.8-42.8-10.2-17.1,19.3-4.8v-60.5ZM392,208c-26.5,0-48-21.5-48-48s21.5-48,48-48,48,21.5,48,48-21.5,48-48,48Z"/>
  <path class="cls-1" d="M392,216c-30.9,0-56-25.1-56-56s25.1-56,56-56,56,25.1,56,56-25.1,56-56,56ZM392,120c-22.1,0-40,17.9-40,40s17.9,40,40,40,40-17.9,40-40-17.9-40-40-40Z"/>
  <path class="cls-2" d="M136,184c-48.5,0-88-39.5-88-88S87.5,8,136,8s88,39.5,88,88-39.5,88-88,88Z"/>
  <path class="cls-1" d="M144,88h-16c-4.4,0-8-3.6-8-8v-8h24c4.4,0,8,3.6,8,8h16c0-13.2-10.8-24-24-24v-16h-16v16h-24v24c0,13.2,10.8,24,24,24h16c4.4,0,8,3.6,8,8v8h-24c-4.4,0-8-3.6-8-8h-16c0,13.2,10.8,24,24,24v16h16v-16h24v-24c0-13.2-10.8-24-24-24Z"/>
  <path class="cls-1" d="M72,264h16v16h-16v-16Z"/>
  <path class="cls-1" d="M104,264h64v16h-64v-16Z"/>
</svg>