<?xml version="1.0" encoding="UTF-8"?>
<svg id="Layer_5" data-name="Layer 5" xmlns="http://www.w3.org/2000/svg" version="1.1" viewBox="0 0 512 512">
  <defs>
    <style>
      .cls-1 {
        fill: #000;
      }

      .cls-1, .cls-2 {
        stroke-width: 0px;
      }

      .cls-2 {
        fill: #00a0e2;
      }
    </style>
  </defs>
  <g>
    <path class="cls-2" d="M296,390.3v-60.7l-21.1-5c-2.7-9.3-6.4-18.2-11-26.7l11.4-18.4-27.4-27.4-34.5,44.8c16.4,16,26.6,38.3,26.6,63,0,48.6-39.4,88-88,88s-88-39.4-88-88,10.2-47,26.6-63l-34.5-44.8-27.4,27.4,11.4,18.4c-4.7,8.4-8.4,17.4-11,26.7l-21.1,5v60.7l21.1,5c2.7,9.3,6.4,18.2,11,26.7l-11.4,18.4,42.9,42.9,18.4-11.4c8.5,4.7,17.4,8.4,26.7,11l5,21.1h60.7l5-21.1c9.3-2.7,18.2-6.4,26.7-11l18.4,11.4,42.9-42.9-11.4-18.4c4.7-8.4,8.4-17.4,11-26.7l21.1-5Z"/>
    <path class="cls-2" d="M360,280h112v40h-112v-40Z"/>
    <path class="cls-2" d="M360,120h112v40h-112v-40Z"/>
  </g>
  <path class="cls-1" d="M204.5,243.2l12.3-16,12.7,9.8-12.3,16-12.7-9.8Z"/>
  <path class="cls-1" d="M241.7,220.8c14.4-19.2,22.3-43,22.3-67v-1.7h-16v1.7c0,20.6-6.8,41-19.1,57.5l12.8,9.6Z"/>
  <path class="cls-1" d="M137.2,57.1c4.9-.8,9.8-1.1,14.8-1.1v-16c-5.8,0-11.5.4-17.2,1.3l2.4,15.8Z"/>
  <path class="cls-1" d="M40,152h16c0-41.8,26.7-78.5,66.5-91.4l-4.9-15.2c-46.4,15-77.5,57.8-77.5,106.6Z"/>
  <path class="cls-1" d="M352,80c-13.2,0-24,10.8-24,24v64c0,13.2,10.8,24,24,24h128c13.2,0,24-10.8,24-24v-64c0-13.2-10.8-24-24-24h-56v-8c0-13.2-10.8-24-24-24h-148.7c-25.9-24.7-60.8-40-99.3-40C72.6,8,8,72.6,8,152v1.7c0,31.6,10.6,62.8,29.9,87.8l42.3,55c-15.6,17.6-24.2,39.8-24.2,63.5,0,52.9,43.1,96,96,96s96-43.1,96-96-8.6-45.9-24.2-63.5l42.3-55c4.3-5.6,8-11.4,11.4-17.5h122.4c4.4,0,8,3.6,8,8v8h-56c-13.2,0-24,10.8-24,24v64c0,13.2,10.8,24,24,24h128c13.2,0,24-10.8,24-24v-64c0-13.2-10.8-24-24-24h-56v-8c0-13.2-10.8-24-24-24h-114.8c7-17.2,10.8-35.6,10.8-54.3v-1.7c0-33.2-11.4-63.6-30.3-88h134.3c4.4,0,8,3.6,8,8v8h-56ZM488,264v64c0,4.4-3.6,8-8,8h-128c-4.4,0-8-3.6-8-8v-64c0-4.4,3.6-8,8-8h128c4.4,0,8,3.6,8,8ZM200,312v16h-96v-16h96ZM120,144h-16c-8.8,0-16-7.2-16-16s7.2-16,16-16,16,7.2,16,16v16ZM168,296h-32v-136h32v136ZM200,344c0,26.5-21.5,48-48,48s-48-21.5-48-48h96ZM152,440c-44.1,0-80-35.9-80-80s5.7-34.1,16-47.8v31.8c0,35.3,28.7,64,64,64s64-28.7,64-64v-31.8c10.3,13.7,16,30.3,16,47.8,0,44.1-35.9,80-80,80ZM280,153.7c0,28.1-9.4,55.8-26.5,78l-49.4,64.2h-20.1v-136h16c17.6,0,32-14.4,32-32s-14.4-32-32-32-32,14.4-32,32v16h-32v-16c0-17.6-14.4-32-32-32s-32,14.4-32,32,14.4,32,32,32h16v136h-20.1l-49.4-64.2c-17.1-22.3-26.5-50-26.5-78v-1.7c0-70.6,57.4-128,128-128s128,57.4,128,128v1.7ZM184,144v-16c0-8.8,7.2-16,16-16s16,7.2,16,16-7.2,16-16,16h-16ZM488,104v64c0,4.4-3.6,8-8,8h-128c-4.4,0-8-3.6-8-8v-64c0-4.4,3.6-8,8-8h128c4.4,0,8,3.6,8,8Z"/>
  <path class="cls-1" d="M360,112h112v16h-112v-16Z"/>
  <path class="cls-1" d="M456,144h16v16h-16v-16Z"/>
  <path class="cls-1" d="M360,144h80v16h-80v-16Z"/>
  <path class="cls-1" d="M360,272h112v16h-112v-16Z"/>
  <path class="cls-1" d="M456,304h16v16h-16v-16Z"/>
  <path class="cls-1" d="M360,304h80v16h-80v-16Z"/>
</svg>