<?xml version="1.0" encoding="UTF-8"?>
<svg id="Layer_5" data-name="Layer 5" xmlns="http://www.w3.org/2000/svg" version="1.1" viewBox="0 0 512 512">
  <defs>
    <style>
      .cls-1 {
        fill: #000;
      }

      .cls-1, .cls-2 {
        stroke-width: 0px;
      }

      .cls-2 {
        fill: #00a0e2;
      }
    </style>
  </defs>
  <g>
    <path class="cls-2" d="M16,328v43.2c0,15.9,14.3,28.8,32,28.8h336c17.7,0,32-12.9,32-28.8v-43.2H16Z"/>
    <path class="cls-2" d="M464,48h-120l-14.4-19.2c-6-8.1-15.5-12.8-25.6-12.8h-64c-17.7,0-32,14.3-32,32v40h288v-8c0-17.7-14.3-32-32-32Z"/>
    <path class="cls-2" d="M248,272h144v40h-144v-40Z"/>
  </g>
  <path class="cls-1" d="M104,104c17.6,0,32-14.4,32-32s-14.4-32-32-32-32,14.4-32,32,14.4,32,32,32ZM104,56c8.8,0,16,7.2,16,16s-7.2,16-16,16-16-7.2-16-16,7.2-16,16-16Z"/>
  <path class="cls-1" d="M176,360h16v16h-16v-16Z"/>
  <path class="cls-1" d="M208,360h16v16h-16v-16Z"/>
  <path class="cls-1" d="M240,360h16v16h-16v-16Z"/>
  <path class="cls-1" d="M296,40h16v16h-16v-16Z"/>
  <path class="cls-1" d="M264,40h16v16h-16v-16Z"/>
  <path class="cls-1" d="M232,40h16v16h-16v-16Z"/>
  <path class="cls-1" d="M248,264h144v16h-144v-16Z"/>
  <path class="cls-1" d="M248,296h80v16h-80v-16Z"/>
  <path class="cls-1" d="M344,296h16v16h-16v-16Z"/>
  <path class="cls-1" d="M376,296h16v16h-16v-16Z"/>
  <path class="cls-1" d="M456,168h-48c-8.8,0-16,7.2-16,16v16c0,8.8,7.2,16,16,16h48c8.8,0,16-7.2,16-16v-16c0-8.8-7.2-16-16-16ZM408,200v-16h48v16h-48Z"/>
  <path class="cls-1" d="M232,168h16v16h-16v-16Z"/>
  <path class="cls-1" d="M232,136h16v16h-16v-16Z"/>
  <path class="cls-1" d="M232,200h16v16h-16v-16Z"/>
  <path class="cls-1" d="M464,40h-116l-12-16c-7.5-10-19.5-16-32-16h-64c-22.1,0-40,17.9-40,40v72h-22.8c4.4-9.9,6.8-20.7,6.8-32,0-21.8-8.6-42.2-24.2-57.4-15.6-15.2-36.1-23.3-58.1-22.6C60.2,9.2,25.3,43.9,24,85.5h0c-.4,13.5,2.6,26.4,8.2,37.9-14.4,6.2-24.3,20.3-24.3,36.6v208c0,22.1,17.9,40,40,40h128v16h-44l-28,37.3v42.7h224v-42.7l-28-37.3h-44v-16h128c22.1,0,40-17.9,40-40v-120h40c22.1,0,40-17.9,40-40V80c0-22.1-17.9-40-40-40h.1ZM40,86c1-33.2,28.9-61,62.1-61.9h1.9c16.8,0,32.5,6.4,44.6,18.1,12.5,12.2,19.4,28.5,19.4,45.9,0,27-17.2,51.2-42.7,60.3l-5.3,1.9v17.8h-16v48h16v16h-16v48h16v8c0,4.4-3.6,8-8,8h-16c-4.4,0-8-3.6-8-8v-137.8l-5.3-1.9c-26.4-9.3-43.5-34.4-42.6-62.3h0ZM140,440h36v16h-48l12-16ZM120,488v-16h192v16H120ZM292,440l12,16h-48v-16h36ZM240,456h-48v-48h48v48ZM408,368c0,13.2-10.8,24-24,24H48c-13.2,0-24-10.8-24-24v-208c0-10.7,7-19.9,16.9-22.9,8,10.3,18.6,18.7,31.1,24.2v126.7c0,13.2,10.8,24,24,24h16c13.2,0,24-10.8,24-24v-24h-16v-16h16v-48h-16v-16h16v-22.7c12.8-5.6,23.5-14.5,31.7-25.3h32.3v72c0,22.1,17.9,40,40,40h168v120ZM488,208c0,13.2-10.8,24-24,24h-224c-13.2,0-24-10.8-24-24V48c0-13.2,10.8-24,24-24h64c7.5,0,14.7,3.6,19.2,9.6l16.8,22.4h124c13.2,0,24,10.8,24,24v128Z"/>
</svg>