<?xml version="1.0" encoding="UTF-8"?>
<svg id="Layer_5" data-name="Layer 5" xmlns="http://www.w3.org/2000/svg" version="1.1" viewBox="0 0 512 512">
  <defs>
    <style>
      .cls-1 {
        fill: #000;
      }

      .cls-1, .cls-2 {
        stroke-width: 0px;
      }

      .cls-2 {
        fill: #00a0e2;
      }
    </style>
  </defs>
  <path class="cls-1" d="M497.8,144c3.8-4.3,6.2-9.8,6.2-16,0-13.2-10.8-24-24-24h-40c-4.4,0-8-3.6-8-8v-46.1c0-13.7-5.3-26.6-15-36.3-3.6-3.6-8.5-5.7-13.7-5.7-10.6,0-19.3,8.7-19.3,19.3v28.7c0,27.4-13.6,52.8-36.4,68-4,2.6-8.6,4-13.3,4h-6.3v-16h-80v16h64v112h-16c0-.4,0-.8,0-1.2v-6.8c0-38.5-15-74.6-42.2-101.8l-11.3,11.3c24.2,24.2,37.5,56.3,37.5,90.5v6.8c0,25.3-7.4,49.9-21.5,71l-54.8,82.2h-19.7v-96h16c17.6,0,32-14.4,32-32s-14.4-32-32-32-32,14.4-32,32v16h-32v-16c0-17.6-14.4-32-32-32s-32,14.4-32,32,14.4,32,32,32h16v96h-19.7l-54.8-82.2c-14.1-21.1-21.5-45.7-21.5-71v-6.8c0-34.3,13.4-66.5,37.6-90.7l-11.3-11.3c-27.3,27.2-42.4,63.4-42.4,102v6.8c0,28.5,8.4,56.1,24.2,79.9l55.8,83.7v37.6c0,35.3,28.7,64,64,64s64-28.7,64-64v-37.6l55.8-83.7c12.6-18.9,20.4-40.3,23.1-62.7h33.1v-16h6.1l7.6,3.8c3.3,1.6,6.8,2.7,10.3,3.4v170.7l37.3,74.5c3.6,7.1,10.8,11.6,18.7,11.6s15.2-4.4,18.7-11.6l37.3-74.5v-169.9h16c13.2,0,24-10.8,24-24s-2.4-11.7-6.2-16c3.8-4.3,6.2-9.8,6.2-16s-2.4-11.7-6.2-16c3.8-4.3,6.2-9.8,6.2-16s-2.4-11.7-6.2-16h0ZM184,264c0-8.8,7.2-16,16-16s16,7.2,16,16-7.2,16-16,16h-16v-16ZM200,408v16h-96v-16h96ZM104,280c-8.8,0-16-7.2-16-16s7.2-16,16-16,16,7.2,16,16v16h-16ZM136,296h32v96h-32v-96ZM152,488c-26.5,0-48-21.5-48-48h96c0,26.5-21.5,48-48,48ZM368,408v-160h32v160h-32ZM412.4,485.3c-1.7,3.4-7.2,3.4-8.8,0l-30.6-61.3h70.1l-30.6,61.3ZM448,408h-32v-160h32v160ZM480,232h-120.4c-3.7,0-7.4-.9-10.7-2.5l-10.9-5.5h-9.9v-80h6.3c7.9,0,15.6-2.3,22.2-6.7,27.2-18.2,43.5-48.5,43.5-81.3v-28.7c0-2.7,3.8-4.3,5.7-2.3,6.7,6.7,10.3,15.5,10.3,25v46.1c0,13.2,10.8,24,24,24h40c4.4,0,8,3.6,8,8s-3.6,8-8,8h-24v16h24c4.4,0,8,3.6,8,8s-3.6,8-8,8h-24v16h24c4.4,0,8,3.6,8,8s-3.6,8-8,8h-24v16h24c4.4,0,8,3.6,8,8s-3.6,8-8,8Z"/>
  <path class="cls-2" d="M256,97.8l-19.3-4.8,10.2-17.1-42.8-42.8-17.1,10.2-4.8-19.3h-60.5l-4.8,19.3-17.1-10.2-42.8,42.8,10.2,17.1-19.3,4.8v60.5l19.3,4.8-10.2,17.1,42.8,42.8,17.1-10.2,4.8,19.3h60.5l4.8-19.3,17.1,10.2,42.8-42.8-10.2-17.1,19.3-4.8v-60.5ZM152,176c-26.5,0-48-21.5-48-48s21.5-48,48-48,48,21.5,48,48-21.5,48-48,48Z"/>
  <path class="cls-1" d="M152,184c-30.9,0-56-25.1-56-56s25.1-56,56-56,56,25.1,56,56-25.1,56-56,56ZM152,88c-22.1,0-40,17.9-40,40s17.9,40,40,40,40-17.9,40-40-17.9-40-40-40Z"/>
</svg>