<?xml version="1.0" encoding="UTF-8"?>
<svg id="Layer_5" data-name="Layer 5" xmlns="http://www.w3.org/2000/svg" version="1.1" viewBox="0 0 512 512">
  <defs>
    <style>
      .cls-1 {
        fill: #000;
      }

      .cls-1, .cls-2 {
        stroke-width: 0px;
      }

      .cls-2 {
        fill: #00a0e2;
      }
    </style>
  </defs>
  <g>
    <circle class="cls-2" cx="432" cy="400" r="64"/>
    <circle class="cls-2" cx="432" cy="240" r="64"/>
    <circle class="cls-2" cx="432" cy="80" r="64"/>
  </g>
  <path class="cls-1" d="M258.1,127.7l104.6-28.5c8.4,30.4,36.3,52.8,69.3,52.8s72-32.3,72-72S471.7,8,432,8s-72,32.3-72,72,.1,2.2.2,3.3l-106.3,29,4.2,15.4ZM397.4,124c7.1-12.3,20.1-20,34.6-20s27.5,7.7,34.6,20c-9.5,7.5-21.5,12-34.6,12s-25-4.5-34.6-12ZM416,72c0-8.8,7.2-16,16-16s16,7.2,16,16-7.2,16-16,16-16-7.2-16-16ZM432,24c30.9,0,56,25.1,56,56s-3.8,23-10.2,32.1c-5.7-8.2-13.2-14.7-22.1-18.8,5.1-5.7,8.3-13.1,8.3-21.3,0-17.6-14.4-32-32-32s-32,14.4-32,32,3.2,15.6,8.3,21.3c-8.9,4.1-16.4,10.6-22.1,18.8-6.4-9.1-10.2-20.1-10.2-32.1,0-30.9,25.1-56,56-56Z"/>
  <path class="cls-1" d="M432,168c-23.4,0-44.2,11.3-57.4,28.7l-126.8-58.5-6.7,14.5,125.2,57.8c-4.1,9-6.4,19-6.4,29.5,0,39.7,32.3,72,72,72s72-32.3,72-72-32.3-72-72-72ZM397.4,284c7.1-12.3,20.1-20,34.6-20s27.5,7.7,34.6,20c-9.5,7.5-21.5,12-34.6,12s-25-4.5-34.6-12ZM416,232c0-8.8,7.2-16,16-16s16,7.2,16,16-7.2,16-16,16-16-7.2-16-16ZM477.8,272.1c-5.7-8.2-13.2-14.7-22.1-18.8,5.1-5.7,8.3-13.1,8.3-21.3,0-17.6-14.4-32-32-32s-32,14.4-32,32,3.2,15.6,8.3,21.3c-8.9,4.1-16.4,10.6-22.1,18.8-6.4-9.1-10.2-20.1-10.2-32.1,0-30.9,25.1-56,56-56s56,25.1,56,56-3.8,23-10.2,32.1Z"/>
  <path class="cls-2" d="M252.5,93.3c-2.4-8.9-5.9-17.4-10.5-25.4l4.1-12.3-29.6-29.6-12.3,4.1c-8-4.6-16.5-8.2-25.4-10.5l-5.8-11.6h-41.9l-5.8,11.5c-8.9,2.4-17.4,5.9-25.4,10.5l-12.3-4.1-29.6,29.6,4.1,12.3c-4.6,8-8.2,16.5-10.5,25.4l-11.6,5.8v41.9l11.5,5.8c2.4,8.9,5.9,17.4,10.5,25.4l-4.1,12.3,15.6,15.7c.8-1.6,1.7-3.2,2.6-4.8.2-.4.4-.7.7-1.1,2.8-4.6,6-8.8,9.5-12.8.4-.5.9-1,1.3-1.5,1.1-1.2,2.2-2.3,3.3-3.4.5-.5,1.1-1,1.6-1.5,1.9-1.7,3.8-3.3,5.8-4.9.4-.3.7-.6,1.1-.8-12.2-12.9-19.7-30.2-19.7-49.3,0-39.8,32.2-72,72-72s72,32.2,72,72-7.5,36.4-19.7,49.3c.4.3.7.6,1.1.8,2,1.5,3.9,3.2,5.8,4.9.5.5,1.1,1,1.6,1.5,1.1,1.1,2.2,2.2,3.3,3.4.5.5.9,1,1.3,1.5,3.6,4,6.7,8.2,9.5,12.8.2.4.5.7.7,1.1.9,1.6,1.8,3.1,2.6,4.8l15.6-15.7-4.1-12.3c4.6-8,8.2-16.5,10.5-25.4l11.6-5.8v-41.9l-11.5-5.8Z"/>
  <path class="cls-1" d="M432,328c-14.9,0-28.8,4.6-40.3,12.4l-150.8-150.8-4.6,4.6c-5.3-9.8-12.4-18.4-20.7-25.8,10.6-13.9,16.4-30.7,16.4-48.3,0-44.1-35.9-80-80-80s-80,35.9-80,80,5.8,34.4,16.4,48.3c-19.8,17.6-32.4,43.2-32.4,71.7v40c0,17.6,14.4,32,32,32h7c5.5,13.9,14,26.3,25,36.5v13.5l-59.8,17.1c-30.7,8.8-52.2,37.3-52.2,69.2v55.7h288v-55.7c0-32-21.5-60.4-52.2-69.2l-59.8-17.1v-13.5c10.9-10.2,19.5-22.6,25-36.5h7c17.6,0,32-14.4,32-32v-40c0-8.2-1.2-16.2-3.1-23.8l134.6,134.6c-12.1,12.9-19.5,30.1-19.5,49.2,0,39.7,32.3,72,72,72s72-32.3,72-72-32.3-72-72-72h0ZM182,148.9c.9-6.7,1.5-13.7,1.8-20.9h31.6c-1.4,11.2-5.7,21.7-12.6,30.7-6.5-4.1-13.4-7.4-20.8-9.8h0ZM137.6,145.2c-.7-5.5-1.2-11.3-1.4-17.2h31.7c-.2,5.9-.7,11.7-1.4,17.2-4.7-.7-9.5-1.2-14.4-1.2s-9.7.5-14.4,1.2ZM88.6,112c.7-5.6,2.1-11,4.2-16h28.6c-.6,5.3-1,10.6-1.2,16h-31.6ZM137.4,96h29.1c.6,4.9,1.1,10.2,1.3,16h-31.7c.2-5.8.7-11.1,1.3-16h0ZM152,56c2.5,0,7.9,8.2,11.7,24h-23.4c3.8-15.8,9.2-24,11.7-24ZM215.4,112h-31.6c-.2-5.4-.6-10.7-1.2-16h28.6c2,5,3.5,10.4,4.2,16ZM201.9,80h-21.8c-1.5-7.4-3.5-14.2-6-20,11,4.1,20.6,11,27.8,20ZM129.9,60c-2.5,5.8-4.5,12.6-6,20h-21.8c7.2-9,16.8-15.9,27.8-20ZM88.6,128h31.6c.3,7.2.9,14.2,1.8,20.9-7.4,2.4-14.3,5.8-20.8,9.8-6.9-9-11.2-19.6-12.6-30.7ZM152,160c44.1,0,80,35.9,80,80v12.4c-4.7-2.8-10.1-4.4-16-4.4h-11.2c-17.3,0-34-5.1-48.4-14.7l-4.4-3-4.4,3c-14.4,9.6-31.1,14.7-48.4,14.7h-11.2c-5.9,0-11.3,1.7-16,4.4v-12.4c0-44.1,35.9-80,80-80h0ZM88,296c-8.8,0-16-7.2-16-16s7.2-16,16-16v11.1c0,7.1.8,14.1,2.2,20.9h-2.2ZM126.4,425.2l-5.2-46.9,2.6-.8,18,36.1-15.5,11.6ZM280,448.3v39.7h-32v-64h-16v64H72v-64h-16v64H24v-39.7c0-24.9,16.7-47,40.6-53.8l41-11.7,8,72.1,38.4-28.8,38.4,28.8,8-72.1,41,11.7c23.9,6.8,40.6,29,40.6,53.8h0ZM180.2,377.5l2.6.8-5.2,46.9-15.5-11.6,18-36.1ZM168,366.1l-16,32-16-32v-5.4c4.1,2.5,8.4,4.7,12.8,6.6l3.2,1.4,3.2-1.4c4.5-1.9,8.8-4.2,12.8-6.6v5.4ZM152,351.2c-29.3-14-48-43.5-48-76.2v-11.2c17-.8,33.4-5.7,48-14.4,14.6,8.7,31,13.6,48,14.4v11.2c0,32.6-18.7,62.2-48,76.1ZM216,296h-2.2c1.4-6.8,2.2-13.8,2.2-20.9v-11.1c8.8,0,16,7.2,16,16s-7.2,16-16,16ZM397.4,444c7.1-12.3,20.1-20,34.6-20s27.5,7.7,34.6,20c-9.5,7.5-21.5,12-34.6,12s-25-4.5-34.6-12ZM416,392c0-8.8,7.2-16,16-16s16,7.2,16,16-7.2,16-16,16-16-7.2-16-16ZM477.8,432.1c-5.7-8.2-13.2-14.7-22.1-18.8,5.1-5.7,8.3-13.1,8.3-21.3,0-17.6-14.4-32-32-32s-32,14.4-32,32,3.2,15.6,8.3,21.3c-8.9,4.1-16.4,10.6-22.1,18.8-6.4-9.1-10.2-20.1-10.2-32.1,0-30.9,25.1-56,56-56s56,25.1,56,56-3.8,23-10.2,32.1Z"/>
  <path class="cls-1" d="M144,440h16v16h-16v-16Z"/>
</svg>