<?xml version="1.0" encoding="UTF-8"?>
<svg id="Layer_5" data-name="Layer 5" xmlns="http://www.w3.org/2000/svg" version="1.1" viewBox="0 0 512 512">
  <defs>
    <style>
      .cls-1 {
        fill: #000;
      }

      .cls-1, .cls-2 {
        stroke-width: 0px;
      }

      .cls-2 {
        fill: #00a0e2;
      }
    </style>
  </defs>
  <path class="cls-2" d="M480,126.1v-44.2l-21-5.7c-.7-1.8-1.5-3.7-2.3-5.5l10.8-18.9-31.3-31.3-18.9,10.8c-1.8-.8-3.6-1.6-5.5-2.3l-5.7-21h-44.2l-5.7,21c-1.8.7-3.7,1.4-5.5,2.3l-18.9-10.8-31.3,31.3,10.8,18.9c-.8,1.8-1.6,3.6-2.3,5.5l-21,5.7v44.2l21,5.7c.7,1.8,1.5,3.7,2.3,5.5l-10.8,18.9,31.3,31.3,18.8-10.7c5.5,2.9,11.4,5.7,15.1,6.9h2.4s0-39.6,0-39.6c0-1.1.1-2.2.3-3.2-14.3-6.1-24.3-20.3-24.3-36.8s17.9-40,40-40,40,17.9,40,40-10,30.7-24.3,36.8c.2,1,.3,2.1.3,3.2v40l2.4-.4c3.6-1.1,9.3-3.9,15.1-6.9l18.8,10.7,31.3-31.3-10.8-18.9c.8-1.8,1.6-3.6,2.3-5.5l21-5.8Z"/>
  <path class="cls-2" d="M310.8,334.1l-5.5-44.3c-.8-6.7-3.2-13.1-7-18.8l-8.2-12.4c-1.3-2-2.1-4.4-2.1-6.8h0c0-6.8,5.5-12.3,12.3-12.3s8,.7,11.7,1.8v-25.4c0-8.8-7.2-16-16-16h-24.6c.3,2.6.6,5.3.6,8,0,35.3-28.7,64-64,64s-64-28.7-64-64,.2-5.4.6-8H56c-8.8,0-16,7.2-16,16v144c0,8.8,7.2,16,16,16h240c8.8,0,16-7.2,16-16v-19.9c-.5-2-.9-4-1.2-6Z"/>
  <path class="cls-1" d="M492.8,393.6c7.2-9.6,11.2-21.6,11.2-33.6v-104c0-13.2-10.8-24-24-24s-6.2.6-8.9,1.8c-2.8-10.2-12-17.8-23.1-17.8s-11.7,2.4-16,6.2c-4.3-3.8-9.8-6.2-16-6.2s-5.5.6-8,1.5v-72c14.7-8.5,24-24.2,24-41.5,0-26.5-21.5-48-48-48s-48,21.5-48,48,9.3,33,24,41.5v150.6c0,3.6-.8,7.3-2.4,10.6l-6.7-33.6c-1.2-6.2-3.6-12-6.8-17.1h0v-48c0-22.1-17.9-40-40-40h-36.2c-8.6-12.8-21.1-22.6-35.8-27.8v-20.2c0-4.4,3.6-8,8-8h48v-16h-48c-13.2,0-24,10.8-24,24v16.5c-2.6-.3-5.3-.5-8-.5s-5.4.2-8,.5v-40.5c0-13.2-10.8-24-24-24h-24.5c-4-35.9-34.5-64-71.5-64S8,40.3,8,80s32.3,72,72,72,67.5-28.1,71.5-64h24.5c4.4,0,8,3.6,8,8v44.2c-14.7,5.2-27.3,15-35.8,27.8H48c-22.1,0-40,17.9-40,40v160c0,22.1,17.9,40,40,40h64v16h-8c-17.6,0-32,14.4-32,32s7.2,16,16,16h176c8.8,0,16-7.2,16-16,0-17.6-14.4-32-32-32h-8v-16h64c9.8,0,19-3.7,26.2-10l5.8,11.9v14.2h-16v80h176v-80h-16v-13.3l12.8-17.1ZM45.4,124c7.1-12.3,20.1-20,34.6-20s27.5,7.7,34.6,20c-9.5,7.5-21.5,12-34.6,12s-25-4.5-34.6-12ZM64,72c0-8.8,7.2-16,16-16s16,7.2,16,16-7.2,16-16,16-16-7.2-16-16ZM125.8,112.1c-5.7-8.2-13.2-14.7-22.1-18.8,5.1-5.7,8.3-13.1,8.3-21.3,0-17.6-14.4-32-32-32s-32,14.4-32,32,3.2,15.6,8.3,21.3c-8.9,4.1-16.4,10.6-22.1,18.8-6.4-9.1-10.2-20.1-10.2-32.1,0-30.9,25.1-56,56-56s56,25.1,56,56-3.8,23-10.2,32.1ZM384,72c17.6,0,32,14.4,32,32s-4.9,19.7-12.9,25.6c-4.4-5.8-11.3-9.6-19.1-9.6s-14.7,3.8-19.1,9.6c-8-6-12.9-15.3-12.9-25.6,0-17.6,14.4-32,32-32ZM208,152c30.9,0,56,25.1,56,56s-3.8,23-10.2,32.1c-5.7-8.2-13.2-14.7-22.1-18.8,5.1-5.7,8.3-13.1,8.3-21.3,0-17.6-14.4-32-32-32s-32,14.4-32,32,3.2,15.6,8.3,21.3c-8.9,4.1-16.4,10.6-22.1,18.8-6.4-9.1-10.2-20.1-10.2-32.1,0-30.9,25.1-56,56-56ZM192,200c0-8.8,7.2-16,16-16s16,7.2,16,16-7.2,16-16,16-16-7.2-16-16ZM208,232c14.5,0,27.5,7.7,34.6,20-9.5,7.5-21.5,12-34.6,12s-25-4.5-34.6-12c7.1-12.3,20.1-20,34.6-20h0ZM264,456H88s0,0,0,0c0-8.8,7.2-16,16-16h144c8.8,0,16,7.2,16,16ZM224,424h-96v-16h96v16ZM304,392H48c-13.2,0-24-10.8-24-24v-160c0-13.2,10.8-24,24-24h92.2c-2.7,7.5-4.2,15.6-4.2,24,0,39.7,32.3,72,72,72s72-32.3,72-72-1.5-16.5-4.2-24h28.2c13.2,0,24,10.8,24,24v32c-8.1-5.2-17.6-8.3-27.7-8.3s-20.3,9.1-20.3,20.3,1.2,7.9,3.4,11.2l8.2,12.4c3,4.6,5,9.9,5.7,15.3l5.5,44.3c.9,7.4,3.2,14.4,6.7,20.4l13.1,27c-4.5,5.9-11.3,9.5-18.7,9.5ZM480,488h-144v-48h144v48ZM352,424v-17.8l-28.3-58.1c-2.6-4.6-4.3-9.6-5-14.9l-5.5-44.3c-1-7.9-3.8-15.6-8.3-22.2l-8.2-12.4c-.5-.7-.7-1.5-.7-2.4,0-2.4,1.9-4.3,4.3-4.3,16.9,0,31.6,12,34.9,28.6l10.3,51.4h19.5l6.8-13.7c2.8-5.5,4.2-11.7,4.2-17.9v-152.1c0-4.4,3.6-8,8-8s8,3.6,8,8v128h16v-32c0-4.4,3.6-8,8-8s8,3.6,8,8v32h16v-32c0-4.4,3.6-8,8-8s8,3.6,8,8v32h16v-16c0-4.4,3.6-8,8-8s8,3.6,8,8v104c0,8.6-2.8,17.1-8,24l-16,21.3v18.7h-112Z"/>
  <path class="cls-1" d="M248,296h-16v32h-16v-16h-16v16h-16v-32h-16v32h-16v-64h-16v64h-16v-80h-16v80h-16v-96h-16v112h192v-16h-16v-32Z"/>
</svg>