<?xml version="1.0" encoding="UTF-8"?>
<svg id="Layer_5" data-name="Layer 5" xmlns="http://www.w3.org/2000/svg" version="1.1" viewBox="0 0 512 512">
  <defs>
    <style>
      .cls-1 {
        fill: #000;
      }

      .cls-1, .cls-2 {
        stroke-width: 0px;
      }

      .cls-2 {
        fill: #00a0e2;
      }
    </style>
  </defs>
  <g>
    <path class="cls-2" d="M252.2,236.7c-18.3-23.8-28.2-52.9-28.2-82.9v-1.7c0-1.2.1-2.3.2-3.4v-.2c-4.8-2.7-10.3-4.3-16.2-4.3s-12.9,2-18,5.5l.2.4c-7.3-8.5-18.1-14-30.2-14-19.7,0-36,14.3-39.3,33-2.8-.6-5.7-1-8.7-1-22.1,0-40,17.9-40,40s10.6,31.5,25.5,37.3h.2c-1,3.4-1.6,7-1.6,10.7,0,22.1,17.9,40,40,40h161.8l-45.6-59.3Z"/>
    <path class="cls-2" d="M344,112h32v32h-32v-32Z"/>
    <path class="cls-2" d="M280,176h32v32h-32v-32Z"/>
    <path class="cls-2" d="M408,96h32v80h-32v-80Z"/>
  </g>
  <path class="cls-1" d="M296.8,59.6l9,13.2c4-2.8,8.3-5.3,12.8-7.4l-6.9-14.4c-5.2,2.5-10.2,5.4-14.9,8.6Z"/>
  <path class="cls-1" d="M327.7,44.7l4.6,15.3c4.7-1.4,9.5-2.5,14.4-3.1l-2.2-15.8c-5.7.8-11.3,2-16.8,3.7Z"/>
  <path class="cls-1" d="M283.4,70.4c-4.2,3.9-8.1,8.2-11.6,12.7l12.6,9.9c3-3.9,6.4-7.5,10-10.9l-11-11.7Z"/>
  <path class="cls-1" d="M360,8c-64.6,0-119.4,42.7-137.6,101.4-19.5-8.8-40.9-13.4-62.4-13.4-83.8,0-152,68.2-152,152v85.8l24.5,8.2,8.2,90.1h63.3v72h16v-72h8c39.7,0,72-32.3,72-72v-8h-16v8c0,30.9-25.1,56-56,56H55.3l-7.8-85.9-23.5-7.8v-74.2c0-75,61-136,136-136s40.4,4.6,58.6,13.3c-.7,3.9-1.4,7.8-1.8,11.8-8.5-1.8-17.5-.9-25.4,2.6-8.4-7.3-19.4-11.7-31.3-11.7-20.6,0-38.6,13.1-45.2,32.1-27.4-1.7-50.8,20.5-50.8,47.9s9.4,33.4,24.4,41.8c-.3,2-.4,4.1-.4,6.2,0,26.5,21.5,48,48,48h157.1c-5.4,26-18,49.7-36.9,68.5l-24.2,24.2v107.3h16v-100.7l19.5-19.5c11.7-11.7,21.3-25.1,28.5-39.7,0,35.2,28.7,63.9,64,63.9s64-28.7,64-64v-37.3l50.1-65.2c19.3-25,29.9-56.2,29.9-87.8v-1.7c0-79.4-64.6-144-144-144ZM104,256c0-17.6,14.4-32,32-32s32,14.4,32,32h16c0-26.5-21.5-48-48-48s-34.6,10.6-42.6,26c-8.3-5.9-13.4-15.4-13.4-26,0-17.6,14.4-32,32-32s4.5.3,7,.8l8.2,1.8,1.5-8.2c2.7-15.3,15.9-26.4,31.4-26.4s32,14.4,32,32h16c0-8.4-2.2-16.3-6-23.1,4.6-1.2,9.5-1,14,.6v.3c0,31.6,10.6,62.8,29.9,87.8l35.7,46.4h-145.6c-17.6,0-32-14.4-32-32ZM408,312v16h-96v-16h96ZM360,392c-26.5,0-48-21.5-48-48h96c0,26.5-21.5,48-48,48ZM488,153.7c0,28.1-9.4,55.8-26.5,78l-49.4,64.2h-104.1l-49.4-64.2c-17.1-22.2-26.5-50-26.5-78v-1.7c0-70.6,57.4-128,128-128s128,57.4,128,128v1.7Z"/>
  <path class="cls-1" d="M352,88h16v24h-16v-24Z"/>
  <path class="cls-1" d="M352,144h16v88h-16v-88Z"/>
  <path class="cls-1" d="M288,104h16v72h-16v-72Z"/>
  <path class="cls-1" d="M288,208h16v40h-16v-40Z"/>
  <path class="cls-1" d="M416,72h16v24h-16v-24Z"/>
  <path class="cls-1" d="M416,176h16v40h-16v-40Z"/>
</svg>