<?xml version="1.0" encoding="UTF-8"?>
<svg id="Layer_5" data-name="Layer 5" xmlns="http://www.w3.org/2000/svg" version="1.1" viewBox="0 0 512 512">
  <defs>
    <style>
      .cls-1 {
        fill: #000;
      }

      .cls-1, .cls-2 {
        stroke-width: 0px;
      }

      .cls-2 {
        fill: #00a0e2;
      }
    </style>
  </defs>
  <path class="cls-1" d="M448,344v-80h28.9l-32-64h-76.9v-21.4l23.8-33.4c10.6-14.8,16.2-32.2,16.2-50.4,0-47.8-38.9-86.8-86.8-86.8h-2.5c-47.8,0-86.8,38.9-86.8,86.8s5.6,35.6,16.2,50.4l23.8,33.4v21.4h-60.9l-32,64h28.9v80h-12.9v16h69.8c-10.4,10.2-16.9,24.3-16.9,40s6.5,29.8,16.9,40h-69.8v16h252.9c30.9,0,56-25.1,56-56s-25.1-56-56-56ZM432,344h-104v-102.1l11.1,22.1h92.9v80ZM440,400c0,22.1-17.9,40-40,40s-40-17.9-40-40,17.9-40,40-40,40,17.9,40,40ZM352,371.3c-2.5-4.1-5.5-8-8.9-11.3h17.8c-3.4,3.4-6.4,7.2-8.9,11.3ZM451.1,248h-102.1l-16-32h102.1l16,32ZM261.2,135.9c-8.6-12.1-13.2-26.3-13.2-41.1,0-39,31.7-70.8,70.8-70.8h2.5c39,0,70.8,31.7,70.8,70.8s-4.6,29.1-13.2,41.1l-22.9,32.1h-27.9v-56h-16v56h-27.9l-22.9-32.1ZM288,184h64v16h-64v-16ZM220.9,216h86.1l-16,32h-86.1l16-32ZM224,344v-80h76.9l11.1-22.1v102.1h-88ZM264,400c0-22.1,17.9-40,40-40s40,17.9,40,40-17.9,40-40,40-40-17.9-40-40ZM343.1,440c3.4-3.4,6.4-7.2,8.9-11.3,2.5,4.1,5.5,8,8.9,11.3h-17.8ZM448,440h-8.9c10.4-10.2,16.9-24.3,16.9-40s-6.5-29.8-16.9-40h8.9c22.1,0,40,17.9,40,40s-17.9,40-40,40Z"/>
  <path class="cls-1" d="M400,312h16v16h-16v-16Z"/>
  <path class="cls-1" d="M368,312h16v16h-16v-16Z"/>
  <path class="cls-1" d="M184.4,165l41.6-24,8,13.9-41.6,24-8-13.9Z"/>
  <path class="cls-1" d="M406.1,155l8-13.9,41.6,24-8,13.9-41.6-24Z"/>
  <path class="cls-1" d="M400,424c13.2,0,24-10.8,24-24s-10.8-24-24-24-24,10.8-24,24,10.8,24,24,24ZM400,392c4.4,0,8,3.6,8,8s-3.6,8-8,8-8-3.6-8-8,3.6-8,8-8Z"/>
  <path class="cls-1" d="M304,376c-13.2,0-24,10.8-24,24s10.8,24,24,24,24-10.8,24-24-10.8-24-24-24ZM304,408c-4.4,0-8-3.6-8-8s3.6-8,8-8,8,3.6,8,8-3.6,8-8,8Z"/>
  <path class="cls-2" d="M216,369.8l-19.3-4.8,10.2-17.1-42.8-42.8-17.1,10.2-4.8-19.3h-60.5l-4.8,19.3-17.1-10.2-42.8,42.8,10.2,17.1-19.3,4.8v60.5l19.3,4.8-10.2,17.1,42.8,42.8,17.1-10.2,4.8,19.3h60.5l4.8-19.3,17.1,10.2,42.8-42.8-10.2-17.1,19.3-4.8v-60.5ZM112,448c-26.5,0-48-21.5-48-48s21.5-48,48-48,48,21.5,48,48-21.5,48-48,48Z"/>
  <path class="cls-1" d="M112,456c-30.9,0-56-25.1-56-56s25.1-56,56-56,56,25.1,56,56-25.1,56-56,56ZM112,360c-22.1,0-40,17.9-40,40s17.9,40,40,40,40-17.9,40-40-17.9-40-40-40Z"/>
  <path class="cls-2" d="M320,120c-13.2,0-24-10.8-24-24s10.8-24,24-24,24,10.8,24,24-10.8,24-24,24Z"/>
  <path class="cls-1" d="M424,88h48v16h-48v-16Z"/>
  <path class="cls-1" d="M406,37l41.6-24,8,13.9-41.6,24-8-13.9Z"/>
  <path class="cls-1" d="M184.3,26.9l8-13.9,41.6,24-8,13.9-41.6-24Z"/>
  <path class="cls-1" d="M168,88h48v16h-48v-16Z"/>
</svg>