<?xml version="1.0" encoding="UTF-8"?>
<svg id="Layer_5" data-name="Layer 5" xmlns="http://www.w3.org/2000/svg" version="1.1" viewBox="0 0 512 512">
  <defs>
    <style>
      .cls-1 {
        fill: #000;
      }

      .cls-1, .cls-2 {
        stroke-width: 0px;
      }

      .cls-2 {
        fill: #00a0e2;
      }
    </style>
  </defs>
  <g>
    <path class="cls-2" d="M120,40h208v40H120v-40Z"/>
    <path class="cls-2" d="M40,224h192v40H40v-40Z"/>
    <path class="cls-2" d="M418.7,167.4l-2.7-.2v42.4c28.5,14.6,48,44.1,48,78.3,0,48.6-39.4,88-88,88s-88-39.4-88-88,27.1-74.1,64-84.6v-41h-.5s-1.1.2-1.1.2c-59.3,12.1-102.4,64.8-102.4,125.4s57.4,128,128,128,128-57.4,128-128-34.3-102.5-85.3-120.6h0Z"/>
  </g>
  <path class="cls-1" d="M344,344c12.9,0,18.8-11.8,23.2-20.4,3.4-6.8,6-11.6,8.9-11.6,4.5,0,6.4,1.7,10.3,5.6,4.4,4.4,10.3,10.4,21.6,10.4s17.3-6,21.7-10.3c3.9-3.9,5.8-5.7,10.3-5.7v-16c-11.3,0-17.3,6-21.7,10.3-3.9,3.9-5.8,5.7-10.3,5.7s-6.4-1.7-10.3-5.6c-4.4-4.4-10.3-10.4-21.6-10.4s-18.9,11.8-23.2,20.4c-3.4,6.8-6,11.6-8.9,11.6s-5.5-4.8-8.9-11.6c-4.3-8.6-10.2-20.4-23.2-20.4v16c2.8,0,5.5,4.8,8.9,11.6,4.3,8.6,10.2,20.4,23.2,20.4h0Z"/>
  <path class="cls-1" d="M454.4,389c-4.5,3.5-9.3,6.8-14.3,9.7l12.6,58.8-23.1-11.5-17.9,23.9-13.9-55.7c-5.3.9-10.6,1.5-16.1,1.7l22.6,90.5,30.1-40.1,40.9,20.5-20.9-97.6Z"/>
  <path class="cls-1" d="M376,384c52.9,0,96-43.1,96-96s-18.3-65.8-48-83v-73.7l16,16v12.7h16v-19.3l-12.7-12.7,12.7-12.7v-51.3c0-13.2-10.8-24-24-24h-8.8c-3.7-18.2-19.9-32-39.2-32H92.7L8,92.7v363.3h275.2l-6.6,30.6,40.9-20.5,30.1,40.1,22.6-90.5c-5.4-.2-10.8-.8-16.1-1.7l-13.9,55.7-17.9-23.9-23.1,11.5,12.6-58.8c-5-2.9-9.8-6.1-14.3-9.7l-10.9,51H24V104h80V24h248.2c-5.1,6.7-8.2,15-8.2,24v149.6c-38,13.5-64,49.7-64,90.4s43.1,96,96,96h0ZM408,216h-48v-112h48v112ZM403.1,232l-14.6,29.3c-1.7,3.4-7.2,3.4-8.8,0l-14.6-29.3h38.1ZM440,64v44.7l-16,16V56h8c4.4,0,8,3.6,8,8ZM35.3,88l52.7-52.7v52.7h-52.7ZM408,48v40h-48v-40c0-13.2,10.8-24,24-24s24,10.8,24,24ZM344,214.8v11.1l21.3,42.5c3.6,7.1,10.8,11.6,18.7,11.6s15.2-4.4,18.7-11.6l21.3-42.5v-1.6c20,15,32,38.3,32,63.8,0,44.1-35.9,80-80,80s-80-35.9-80-80,19.3-60.6,48-73.2h0Z"/>
  <path class="cls-1" d="M120,40h16v16h-16v-16Z"/>
  <path class="cls-1" d="M152,40h176v16h-176v-16Z"/>
  <path class="cls-1" d="M120,72h208v16H120v-16Z"/>
  <path class="cls-1" d="M264,120H40v80h224v-80ZM248,184H56v-48h192v48Z"/>
  <path class="cls-1" d="M40,216h192v16H40v-16Z"/>
  <path class="cls-1" d="M216,248h16v16h-16v-16Z"/>
  <path class="cls-1" d="M40,248h160v16H40v-16Z"/>
  <path class="cls-1" d="M40,352c0,39.7,32.3,72,72,72s72-32.3,72-72-32.3-72-72-72-72,32.3-72,72ZM131.3,360h36c-1.4,9.5-5.1,18.2-10.6,25.5l-25.5-25.5ZM56,352c0-28.2,20.9-51.5,48-55.4v58.7l41.5,41.5c-9.4,7-20.9,11.2-33.5,11.2-30.9,0-56-25.1-56-56ZM167.4,344h-47.4v-47.4c24.5,3.5,43.8,22.9,47.4,47.4Z"/>
</svg>