<?xml version="1.0" encoding="UTF-8"?>
<svg id="Capa_1" data-name="Capa 1" xmlns="http://www.w3.org/2000/svg" version="1.1" viewBox="0 0 512 512">
  <defs>
    <style>
      .cls-1 {
        isolation: isolate;
        opacity: .3;
      }

      .cls-1, .cls-2 {
        fill-rule: evenodd;
      }

      .cls-1, .cls-2, .cls-3 {
        stroke-width: 0px;
      }

      .cls-1, .cls-3 {
        fill: #fff;
      }

      .cls-2 {
        fill: #251d36;
      }
    </style>
  </defs>
  <g id="Vrstva_1">
    <path class="cls-2" d="M131.1,0h171.2l145.1,151.3v294.2c0,36.7-29.9,66.6-66.6,66.6h-249.8c-36.8,0-66.6-29.9-66.6-66.6V66.6C64.5,29.7,94.3,0,131.1,0h0Z"/>
    <g>
      <path class="cls-1" d="M302.2,0v150h145.3L302.2,0Z"/>
      <path class="cls-3" d="M367.7,341.2h-223.4c-10.4,0-18.8,8.3-18.8,18.8s8.3,18.5,18.8,18.5h223.4c10.4,0,18.8-8.3,18.8-18.5s-8.3-18.8-18.8-18.8h0ZM367.7,415.7h-223.4c-10.4,0-18.8,8.3-18.8,18.8s8.3,18.5,18.8,18.5h223.4c10.4,0,18.8-8.3,18.8-18.5s-8.3-18.8-18.8-18.8h0ZM254,192.3h-109.7c-10.4,0-18.8,8.1-18.8,18.5s8.3,18.5,18.8,18.5h109.7c10.4,0,18.8-8.1,18.8-18.5s-8.3-18.5-18.8-18.5ZM367.7,266.6h-223.4c-10.4,0-18.8,8.3-18.8,18.8s8.3,18.5,18.8,18.5h223.4c10.4,0,18.8-8.3,18.8-18.5s-8.3-18.8-18.8-18.8h0Z"/>
    </g>
  </g>
</svg>