<?xml version="1.0" encoding="UTF-8"?>
<svg id="Capa_1" data-name="Capa 1" xmlns="http://www.w3.org/2000/svg" version="1.1" viewBox="0 0 512 512">
  <defs>
    <style>
      .cls-1, .cls-2 {
        fill: #fff;
      }

      .cls-1, .cls-2, .cls-3 {
        fill-rule: evenodd;
        stroke-width: 0px;
      }

      .cls-2 {
        isolation: isolate;
        opacity: .3;
      }

      .cls-3 {
        fill: #0ac963;
      }
    </style>
  </defs>
  <g id="Vrstva_1">
    <path class="cls-3" d="M131.2,0h171.2l145,151.3v294c0,36.8-29.9,66.7-66.7,66.7h-249.6c-36.8,0-66.7-29.9-66.7-66.7V66.7C64.5,29.9,94.4,0,131.2,0Z"/>
    <g>
      <path class="cls-2" d="M302.2,0v150h145.3L302.2,0Z"/>
      <path class="cls-1" d="M379.7,202.7h-247.2c-18.5,0-33.7,15.2-33.7,33.7v157.1c0,18.5,15.2,33.7,33.7,33.7h247.2c18.5,0,33.3-15.2,33.3-33.7v-157.1c0-18.5-14.8-33.7-33.3-33.7h0ZM200,245.1c20.2,0,36.2,16.5,36.2,36.2s-16,36.6-36.2,36.6-36.6-16.5-36.6-36.6,16.5-36.2,36.6-36.2ZM390.8,393.5c0,6.2-4.9,11.5-11.1,11.5h-247.2c-6.2,0-11.1-5.3-11.1-11.5v-6.6l44.8-44.8,37,37c4.5,4.5,11.5,4.5,16,0l92.9-92.9,78.6,78.6v28.8Z"/>
    </g>
  </g>
</svg>