<?xml version="1.0" encoding="UTF-8"?>
<svg id="Capa_1" data-name="Capa 1" xmlns="http://www.w3.org/2000/svg" version="1.1" viewBox="0 0 512 512">
  <defs>
    <style>
      .cls-1 {
        isolation: isolate;
        opacity: .3;
      }

      .cls-1, .cls-2 {
        fill-rule: evenodd;
      }

      .cls-1, .cls-2, .cls-3 {
        stroke-width: 0px;
      }

      .cls-1, .cls-3 {
        fill: #fff;
      }

      .cls-2 {
        fill: #90c;
      }
    </style>
  </defs>
  <g id="Vrstva_1">
    <path class="cls-2" d="M131.1,0h171.2l145.1,151.3v294.2c0,36.7-29.9,66.6-66.6,66.6h-249.8c-36.8,0-66.6-29.9-66.6-66.6V66.6C64.5,29.7,94.3,0,131.1,0h0Z"/>
    <g>
      <path class="cls-1" d="M302.2,0v150h145.3L302.2,0Z"/>
      <path class="cls-3" d="M330.8,350.2c8-13.4,13.4-30.4,14.4-47.2.5-10.8-1.8-22.2-7-32.7-8.2-16.7-22.2-26-35.8-35.3-10.1-6.7-19.6-13.1-26.3-22.2l-1.3-1.5c-3.9-5.4-8.5-11.6-9.3-16.7-.5-5.2-5.4-8.8-10.3-8.5-5.4.5-9.3,4.6-9.3,10.1v176.8c-8.2-5.2-18.6-8.2-29.9-8.2-27.3,0-49.5,17.8-49.5,39.7s22.2,39.7,49.5,39.7,49.7-17.8,49.7-39.7v-115.7c14.9,5.9,39.2,20.4,45.9,54.1-1.3,1.8-2.3,3.9-3.9,5.4-3.6,4.1-3.1,10.3,1,14.2,4.1,3.6,10.3,3.1,13.9-1,2.6-3.1,5.2-6.4,7.2-10.3.3-.3.5-.5.8-.8h0Z"/>
    </g>
  </g>
</svg>