<?xml version="1.0" encoding="UTF-8"?>
<svg id="Capa_1" data-name="Capa 1" xmlns="http://www.w3.org/2000/svg" version="1.1" viewBox="0 0 512 512">
  <defs>
    <style>
      .cls-1 {
        isolation: isolate;
        opacity: .3;
      }

      .cls-1, .cls-2 {
        fill: #fff;
      }

      .cls-1, .cls-2, .cls-3 {
        stroke-width: 0px;
      }

      .cls-1, .cls-3 {
        fill-rule: evenodd;
      }

      .cls-3 {
        fill: #fa0000;
      }
    </style>
  </defs>
  <g id="Vrstva_1">
    <path class="cls-3" d="M131.2,0h171.2l145.1,151.2v294.1c0,36.8-29.8,66.7-66.5,66.7h-249.7c-36.8,0-66.7-29.8-66.7-66.7V66.7C64.5,29.8,94.4,0,131.2,0h0Z"/>
    <g>
      <path class="cls-1" d="M302.2,0v150.1h145.2L302.2,0Z"/>
      <path class="cls-2" d="M256.1,193.1c-67.3,0-122.1,54.7-122.1,122.1s54.7,121.9,122.1,121.9,121.9-54.5,121.9-121.9-54.7-121.9-121.9-122.1ZM307.4,318.9c-.9,1.7-2.3,3-4,4l-69.6,34.9c-4.3,2.1-9.6.4-11.7-4-.8-1.1-.9-2.5-.9-4v-69.6c0-4.9,4-8.7,8.7-8.7s2.6.2,4,.9l69.6,34.7c4.3,2.3,6,7.4,4,11.7h0Z"/>
    </g>
  </g>
</svg>