<?xml version="1.0" encoding="UTF-8"?>
<svg id="Capa_1" data-name="Capa 1" xmlns="http://www.w3.org/2000/svg" version="1.1" viewBox="0 0 512 512">
  <defs>
    <style>
      .cls-1 {
        isolation: isolate;
        opacity: .3;
      }

      .cls-1, .cls-2 {
        fill-rule: evenodd;
      }

      .cls-1, .cls-2, .cls-3 {
        stroke-width: 0px;
      }

      .cls-1, .cls-3 {
        fill: #fff;
      }

      .cls-2 {
        fill: #e5252a;
      }
    </style>
  </defs>
  <g id="Vrstva_1">
    <path class="cls-2" d="M131.2,0h171.2l145.1,151.2v294.1c0,36.8-29.8,66.7-66.5,66.7h-249.7c-36.8,0-66.7-29.8-66.7-66.7V66.7C64.5,29.8,94.4,0,131.2,0h0Z"/>
    <g>
      <path class="cls-1" d="M302.2,0v150.1h145.2L302.2,0Z"/>
      <path class="cls-3" d="M100.9,396.5v-122.6h52.1c12.9,0,23.1,3.5,30.9,10.7,7.7,7,11.6,16.6,11.6,28.5s-3.9,21.5-11.6,28.5c-7.7,7.2-17.9,10.7-30.9,10.7h-20.8v44.1h-31.4ZM132.3,325.8h17.3c4.7,0,8.4-1,10.9-3.4,2.5-2.2,3.9-5.2,3.9-9.2s-1.3-7-3.9-9.2c-2.5-2.3-6.2-3.4-10.9-3.4h-17.3v25.1ZM208.4,396.5v-122.6h43.4c8.6,0,16.6,1.2,24.1,3.7,7.5,2.5,14.4,6,20.5,10.9,6,4.7,10.9,11.1,14.4,19.1,3.4,8,5.2,17.3,5.2,27.7s-1.8,19.4-5.2,27.5c-3.5,8-8.4,14.4-14.4,19.1-6,4.9-12.9,8.4-20.5,10.9-7.5,2.5-15.6,3.7-24.1,3.7h-43.4ZM239.1,369.9h9.1c4.9,0,9.4-.5,13.6-1.7,4-1.2,7.9-3,11.6-5.5,3.5-2.5,6.4-6,8.4-10.7s3-10.2,3-16.6-1-12.1-3-16.8-4.9-8.2-8.4-10.7c-3.7-2.5-7.5-4.4-11.6-5.5-4.2-1.2-8.7-1.7-13.6-1.7h-9.1v69.2ZM331.8,396.5v-122.6h87.2v26.7h-55.8v19.6h44.6v26.5h-44.6v49.8h-31.4Z"/>
    </g>
  </g>
</svg>