<?xml version="1.0" encoding="UTF-8"?>
<svg id="Capa_1" data-name="Capa 1" xmlns="http://www.w3.org/2000/svg" version="1.1" viewBox="0 0 512 512">
  <defs>
    <style>
      .cls-1 {
        isolation: isolate;
        opacity: .3;
      }

      .cls-1, .cls-2 {
        fill-rule: evenodd;
      }

      .cls-1, .cls-2, .cls-3 {
        stroke-width: 0px;
      }

      .cls-1, .cls-3 {
        fill: #fff;
      }

      .cls-2 {
        fill: #e03303;
      }
    </style>
  </defs>
  <g id="Vrstva_1">
    <path class="cls-2" d="M131.1,0h171.2l145.1,151.3v294.2c0,36.7-29.9,66.6-66.6,66.6h-249.8c-36.8,0-66.6-29.9-66.6-66.6V66.6C64.5,29.7,94.3,0,131.1,0h0Z"/>
    <g>
      <path class="cls-1" d="M302.2,0v150h145.3L302.2,0Z"/>
      <path class="cls-3" d="M243.7,216.6c-60.5,3-108.6,53.3-107.8,114.5,1,61,50.6,110.8,111.5,111.5,61.5,1,111.8-47.1,114.5-107.6.2-3-2.2-5.5-5.2-5.5h-102.4c-3,0-5.5-2.5-5.5-5.2v-102.6c0-3-2.2-5.2-5.2-5.2ZM271,200v102.4c0,3,2.2,5.2,5.2,5.2h102.6c3,0,5.2-2.5,5.2-5.5-2.7-58-49.3-104.6-107.6-107.3-3-.2-5.5,2.2-5.5,5.2h0Z"/>
    </g>
  </g>
</svg>