<?xml version="1.0" encoding="UTF-8"?>
<svg id="Capa_1" data-name="Capa 1" xmlns="http://www.w3.org/2000/svg" version="1.1" viewBox="0 0 512 512">
  <defs>
    <style>
      .cls-1, .cls-2, .cls-3 {
        fill-rule: evenodd;
        stroke-width: 0px;
      }

      .cls-1, .cls-3 {
        fill: #fff;
      }

      .cls-2 {
        fill: #00733b;
      }

      .cls-3 {
        isolation: isolate;
        opacity: .3;
      }
    </style>
  </defs>
  <g id="Vrstva_1">
    <path class="cls-2" d="M131.2,0h171.2l145,151.3v294c0,36.8-29.9,66.7-66.7,66.7h-249.6c-36.8,0-66.7-29.9-66.7-66.7V66.7C64.5,29.9,94.4,0,131.2,0Z"/>
    <g>
      <path class="cls-3" d="M302.2,0v150h145.3L302.2,0Z"/>
      <path class="cls-1" d="M135,411.1h98.3v37.3h-98.3v-37.3ZM264,220.7h98.7v37h-98.7v-37ZM135,220.7h98.3v37h-98.3v-37ZM264,283.3h98.7v37.3h-98.7v-37.3ZM135,283.3h98.3v37.3h-98.3v-37.3ZM264,348.5h98.7v37.3h-98.7v-37.3ZM135,348.5h98.3v37.3h-98.3v-37.3ZM264,411.1h98.7v37.3h-98.7v-37.3Z"/>
    </g>
  </g>
</svg>