<?xml version="1.0" encoding="UTF-8"?>
<svg id="Capa_1" data-name="Capa 1" xmlns="http://www.w3.org/2000/svg" version="1.1" viewBox="0 0 512 512">
  <defs>
    <style>
      .cls-1 {
        fill: #ffb11f;
      }

      .cls-1, .cls-2 {
        fill-rule: evenodd;
      }

      .cls-1, .cls-2, .cls-3 {
        stroke-width: 0px;
      }

      .cls-2 {
        isolation: isolate;
        opacity: .3;
      }

      .cls-2, .cls-3 {
        fill: #fff;
      }
    </style>
  </defs>
  <g id="Vrstva_1">
    <path class="cls-1" d="M131.1,0h171.2l145.1,151.3v294.2c0,36.7-29.9,66.6-66.6,66.6h-249.8c-36.8,0-66.6-29.9-66.6-66.6V66.6C64.5,29.7,94.3,0,131.1,0h0Z"/>
    <g>
      <path class="cls-2" d="M302.2,0v150h145.3L302.2,0Z"/>
      <path class="cls-3" d="M196.7,329.7v-44.6c0-4.8-3.8-8.6-8.6-8.6h-24.1c-4.8,0-8.6,3.8-8.6,8.6v44.6l-13.5,39.4c-3.8,11.1-2,23.3,4.8,32.8,6.6,9.5,17.7,15.1,29.4,15.1s22.5-5.6,29.4-15.1,8.6-21.7,4.8-32.8l-13.5-39.4ZM191.1,391.7c-6.8,9.9-23.3,9.9-30.4,0-3.4-4.8-4.4-11.3-2.4-16.9l4.4-13.3h26.3l4.6,13.3c1.8,5.6,1,12.1-2.6,16.9ZM122.5,36.7v24.5c0,4.8,3.8,8.6,8.6,8.6h32.8v36.6h-32.8c-4.8,0-8.6,3.8-8.6,8.6v18.9c0,4.8,3.8,8.8,8.6,8.8h32.8v36.4h-32.8c-4.8,0-8.6,3.8-8.6,8.6v19.1c0,4.8,3.8,8.6,8.6,8.6h32.8v27.8c0,4.8,4,8.6,8.8,8.6h48.1c4.6,0,8.6-3.8,8.6-8.6v-19.1c0-4.6-4-8.6-8.6-8.6h-33v-36.4h33c4.6,0,8.6-3.8,8.6-8.6v-19.1c0-4.8-4-8.6-8.6-8.6h-33v-36.4h33c4.6,0,8.6-4,8.6-8.8v-18.9c0-4.8-4-8.8-8.6-8.8h-33v-33.4s-65.4.2-65.4.2h0Z"/>
    </g>
  </g>
</svg>